<svg xmlns="http://www.w3.org/2000/svg" width="1024" height="1024" viewBox="0 0 1024 1024">
  <rect width="1024" height="1024" fill="#0B3592"/>
  <path d="M509.0,122.0 L472.0,124.0 L428.0,131.0 L394.0,140.0 L350.0,157.0 L317.0,174.0 L279.0,199.0 L251.0,222.0 L221.0,252.0 L199.0,279.0 L180.0,307.0 L157.0,350.0 L147.0,374.0 L137.0,404.0 L128.0,443.0 L123.0,483.0 L122.0,519.0 L125.0,560.0 L131.0,595.0 L140.0,629.0 L157.0,673.0 L174.0,706.0 L199.0,744.0 L221.0,771.0 L251.0,801.0 L275.0,821.0 L307.0,843.0 L352.0,867.0 L374.0,876.0 L404.0,886.0 L443.0,895.0 L483.0,900.0 L514.0,901.0 L551.0,899.0 L595.0,892.0 L629.0,883.0 L671.0,867.0 L706.0,849.0 L744.0,824.0 L772.0,801.0 L802.0,771.0 L824.0,744.0 L843.0,716.0 L866.0,673.0 L876.0,649.0 L886.0,619.0 L895.0,580.0 L900.0,540.0 L901.0,504.0 L898.0,463.0 L892.0,428.0 L883.0,394.0 L866.0,350.0 L849.0,317.0 L824.0,279.0 L802.0,252.0 L772.0,222.0 L748.0,202.0 L716.0,180.0 L673.0,157.0 L649.0,147.0 L619.0,137.0 L580.0,128.0 L540.0,123.0 Z M259.0,344.0 L284.0,318.0 L307.0,298.0 L355.0,265.0 L408.0,240.0 L439.0,230.0 L480.0,221.0 L529.0,216.0 L565.0,216.0 L613.0,223.0 L650.0,233.0 L694.0,249.0 L721.0,262.0 L741.0,275.0 L761.0,295.0 L767.0,306.0 L770.0,317.0 L770.0,330.0 L767.0,341.0 L757.0,355.0 L754.0,364.0 L746.0,419.0 L744.0,504.0 L748.0,567.0 L753.0,599.0 L759.0,621.0 L800.0,701.0 L810.0,724.0 L809.0,742.0 L801.0,759.0 L785.0,775.0 L768.0,785.0 L749.0,791.0 L723.0,792.0 L707.0,787.0 L691.0,779.0 L643.0,746.0 L583.0,770.0 L529.0,786.0 L493.0,792.0 L449.0,792.0 L401.0,787.0 L357.0,777.0 L334.0,769.0 L303.0,754.0 L278.0,737.0 L263.0,724.0 L244.0,703.0 L232.0,686.0 L217.0,658.0 L201.0,609.0 L193.0,553.0 L193.0,498.0 L197.0,469.0 L204.0,441.0 L212.0,419.0 L224.0,394.0 L241.0,367.0 Z" fill="#ffffff" fill-rule="evenodd"/>
  <path d="M593.0,352.0 L565.0,343.0 L540.0,343.0 L513.0,347.0 L476.0,359.0 L453.0,371.0 L423.0,393.0 L400.0,416.0 L381.0,442.0 L369.0,466.0 L360.0,498.0 L358.0,514.0 L360.0,564.0 L365.0,589.0 L378.0,620.0 L388.0,634.0 L408.0,651.0 L422.0,658.0 L449.0,665.0 L485.0,666.0 L504.0,664.0 L532.0,658.0 L557.0,649.0 L581.0,637.0 L600.0,624.0 L588.0,530.0 L583.0,466.0 L583.0,419.0 Z" fill="#ffffff"/>
</svg>
